<mxfile host="Electron" modified="2023-10-03T05:43:49.750Z" agent="Mozilla/5.0 (Windows NT 10.0; Win64; x64) AppleWebKit/537.36 (KHTML, like Gecko) draw.io/21.8.2 Chrome/114.0.5735.289 Electron/25.8.1 Safari/537.36" etag="eEa7Qmt4f8SFLJE7cmZp" version="21.8.2" type="device">
  <diagram name="Page-1" id="dR3vy4_TgyyoGZNiGvm2">
    <mxGraphModel dx="1234" dy="737" grid="1" gridSize="10" guides="1" tooltips="1" connect="1" arrows="1" fold="1" page="1" pageScale="1" pageWidth="1654" pageHeight="2336" math="0" shadow="0">
      <root>
        <mxCell id="0" />
        <mxCell id="1" parent="0" />
        <mxCell id="XTGiWPY2_6qsZkjuVUfH-4" value="" style="group" parent="1" vertex="1" connectable="0">
          <mxGeometry x="690" y="600" width="260" height="180" as="geometry" />
        </mxCell>
        <mxCell id="XTGiWPY2_6qsZkjuVUfH-2" value="" style="rounded=1;whiteSpace=wrap;html=1;" parent="XTGiWPY2_6qsZkjuVUfH-4" vertex="1">
          <mxGeometry width="260" height="180" as="geometry" />
        </mxCell>
        <mxCell id="XTGiWPY2_6qsZkjuVUfH-3" value="" style="endArrow=none;html=1;rounded=0;entryX=1;entryY=0.25;entryDx=0;entryDy=0;" parent="XTGiWPY2_6qsZkjuVUfH-4" target="XTGiWPY2_6qsZkjuVUfH-2" edge="1">
          <mxGeometry width="50" height="50" relative="1" as="geometry">
            <mxPoint y="46.95652173913044" as="sourcePoint" />
            <mxPoint x="252.97297297297294" y="46.95652173913044" as="targetPoint" />
          </mxGeometry>
        </mxCell>
        <mxCell id="XTGiWPY2_6qsZkjuVUfH-18" value="&lt;font style=&quot;font-size: 18px;&quot;&gt;Hotel Management System&lt;/font&gt;" style="text;html=1;strokeColor=none;fillColor=none;align=center;verticalAlign=middle;whiteSpace=wrap;rounded=0;" parent="XTGiWPY2_6qsZkjuVUfH-4" vertex="1">
          <mxGeometry x="100" y="90" width="60" height="30" as="geometry" />
        </mxCell>
        <mxCell id="XTGiWPY2_6qsZkjuVUfH-5" value="" style="rounded=0;whiteSpace=wrap;html=1;" parent="1" vertex="1">
          <mxGeometry x="320" y="595" width="140" height="80" as="geometry" />
        </mxCell>
        <mxCell id="XTGiWPY2_6qsZkjuVUfH-6" value="" style="rounded=0;whiteSpace=wrap;html=1;" parent="1" vertex="1">
          <mxGeometry x="320" y="720" width="140" height="70" as="geometry" />
        </mxCell>
        <mxCell id="XTGiWPY2_6qsZkjuVUfH-7" value="" style="rounded=0;whiteSpace=wrap;html=1;" parent="1" vertex="1">
          <mxGeometry x="1180" y="640" width="120" height="70" as="geometry" />
        </mxCell>
        <mxCell id="XTGiWPY2_6qsZkjuVUfH-9" value="" style="endArrow=classic;html=1;rounded=0;entryX=0;entryY=0.25;entryDx=0;entryDy=0;exitX=1.003;exitY=0.365;exitDx=0;exitDy=0;exitPerimeter=0;" parent="1" edge="1">
          <mxGeometry relative="1" as="geometry">
            <mxPoint x="950.78" y="680.3499999999999" as="sourcePoint" />
            <mxPoint x="1180" y="679.65" as="targetPoint" />
          </mxGeometry>
        </mxCell>
        <mxCell id="XTGiWPY2_6qsZkjuVUfH-10" value="&lt;font style=&quot;font-size: 14px;&quot;&gt;Accomodation Information&lt;/font&gt;" style="edgeLabel;resizable=0;html=1;align=center;verticalAlign=middle;" parent="XTGiWPY2_6qsZkjuVUfH-9" connectable="0" vertex="1">
          <mxGeometry relative="1" as="geometry" />
        </mxCell>
        <mxCell id="XTGiWPY2_6qsZkjuVUfH-12" value="" style="endArrow=classic;html=1;rounded=0;entryX=0;entryY=0.25;entryDx=0;entryDy=0;exitX=1.003;exitY=0.365;exitDx=0;exitDy=0;exitPerimeter=0;" parent="1" edge="1">
          <mxGeometry relative="1" as="geometry">
            <mxPoint x="951" y="710" as="sourcePoint" />
            <mxPoint x="1180" y="709" as="targetPoint" />
          </mxGeometry>
        </mxCell>
        <mxCell id="XTGiWPY2_6qsZkjuVUfH-13" value="&lt;font style=&quot;font-size: 14px;&quot;&gt;Billing&lt;/font&gt;" style="edgeLabel;resizable=0;html=1;align=center;verticalAlign=middle;" parent="XTGiWPY2_6qsZkjuVUfH-12" connectable="0" vertex="1">
          <mxGeometry relative="1" as="geometry" />
        </mxCell>
        <mxCell id="XTGiWPY2_6qsZkjuVUfH-14" value="Customer" style="text;html=1;strokeColor=none;fillColor=none;align=center;verticalAlign=middle;whiteSpace=wrap;rounded=0;" parent="1" vertex="1">
          <mxGeometry x="1210" y="665" width="60" height="30" as="geometry" />
        </mxCell>
        <mxCell id="XTGiWPY2_6qsZkjuVUfH-15" value="" style="endArrow=classic;html=1;rounded=0;exitX=-0.015;exitY=0.186;exitDx=0;exitDy=0;exitPerimeter=0;entryX=1;entryY=0.286;entryDx=0;entryDy=0;entryPerimeter=0;" parent="1" source="XTGiWPY2_6qsZkjuVUfH-7" target="XTGiWPY2_6qsZkjuVUfH-2" edge="1">
          <mxGeometry relative="1" as="geometry">
            <mxPoint x="1030" y="650" as="sourcePoint" />
            <mxPoint x="1130" y="650" as="targetPoint" />
          </mxGeometry>
        </mxCell>
        <mxCell id="XTGiWPY2_6qsZkjuVUfH-16" value="Enquiry" style="edgeLabel;resizable=0;html=1;align=center;verticalAlign=middle;" parent="XTGiWPY2_6qsZkjuVUfH-15" connectable="0" vertex="1">
          <mxGeometry relative="1" as="geometry" />
        </mxCell>
        <mxCell id="XTGiWPY2_6qsZkjuVUfH-19" value="&lt;font style=&quot;font-size: 18px;&quot;&gt;Employee&lt;/font&gt;" style="text;html=1;strokeColor=none;fillColor=none;align=center;verticalAlign=middle;whiteSpace=wrap;rounded=0;" parent="1" vertex="1">
          <mxGeometry x="360" y="740" width="60" height="30" as="geometry" />
        </mxCell>
        <mxCell id="XTGiWPY2_6qsZkjuVUfH-20" value="&lt;font style=&quot;font-size: 18px;&quot;&gt;Manager&lt;/font&gt;" style="text;html=1;strokeColor=none;fillColor=none;align=center;verticalAlign=middle;whiteSpace=wrap;rounded=0;" parent="1" vertex="1">
          <mxGeometry x="360" y="620" width="60" height="30" as="geometry" />
        </mxCell>
        <mxCell id="XTGiWPY2_6qsZkjuVUfH-21" value="" style="endArrow=classic;html=1;rounded=0;entryX=1.009;entryY=0.56;entryDx=0;entryDy=0;entryPerimeter=0;exitX=0.001;exitY=0.223;exitDx=0;exitDy=0;exitPerimeter=0;" parent="1" source="XTGiWPY2_6qsZkjuVUfH-2" target="XTGiWPY2_6qsZkjuVUfH-5" edge="1">
          <mxGeometry relative="1" as="geometry">
            <mxPoint x="670" y="650" as="sourcePoint" />
            <mxPoint x="630" y="640" as="targetPoint" />
          </mxGeometry>
        </mxCell>
        <mxCell id="XTGiWPY2_6qsZkjuVUfH-22" value="Reports" style="edgeLabel;resizable=0;html=1;align=center;verticalAlign=middle;" parent="XTGiWPY2_6qsZkjuVUfH-21" connectable="0" vertex="1">
          <mxGeometry relative="1" as="geometry" />
        </mxCell>
        <mxCell id="XTGiWPY2_6qsZkjuVUfH-23" value="" style="endArrow=classic;html=1;rounded=0;entryX=0.999;entryY=0.147;entryDx=0;entryDy=0;entryPerimeter=0;exitX=-0.002;exitY=0.734;exitDx=0;exitDy=0;exitPerimeter=0;" parent="1" source="XTGiWPY2_6qsZkjuVUfH-2" target="XTGiWPY2_6qsZkjuVUfH-6" edge="1">
          <mxGeometry relative="1" as="geometry">
            <mxPoint x="530" y="740" as="sourcePoint" />
            <mxPoint x="630" y="740" as="targetPoint" />
          </mxGeometry>
        </mxCell>
        <mxCell id="XTGiWPY2_6qsZkjuVUfH-24" value="Customer Info" style="edgeLabel;resizable=0;html=1;align=center;verticalAlign=middle;" parent="XTGiWPY2_6qsZkjuVUfH-23" connectable="0" vertex="1">
          <mxGeometry relative="1" as="geometry" />
        </mxCell>
        <mxCell id="XTGiWPY2_6qsZkjuVUfH-25" value="" style="endArrow=classic;html=1;rounded=0;entryX=1.003;entryY=0.588;entryDx=0;entryDy=0;entryPerimeter=0;exitX=0.002;exitY=0.892;exitDx=0;exitDy=0;exitPerimeter=0;" parent="1" source="XTGiWPY2_6qsZkjuVUfH-2" target="XTGiWPY2_6qsZkjuVUfH-6" edge="1">
          <mxGeometry relative="1" as="geometry">
            <mxPoint x="540" y="760" as="sourcePoint" />
            <mxPoint x="640" y="760" as="targetPoint" />
          </mxGeometry>
        </mxCell>
        <mxCell id="XTGiWPY2_6qsZkjuVUfH-26" value="Accomodation Info" style="edgeLabel;resizable=0;html=1;align=center;verticalAlign=middle;" parent="XTGiWPY2_6qsZkjuVUfH-25" connectable="0" vertex="1">
          <mxGeometry relative="1" as="geometry" />
        </mxCell>
        <mxCell id="662g4ech87Eq5ZAw6HDh-1" value="" style="html=1;dashed=0;whiteSpace=wrap;shape=mxgraph.dfd.dataStoreID;align=left;spacingLeft=3;points=[[0,0],[0.5,0],[1,0],[0,0.5],[1,0.5],[0,1],[0.5,1],[1,1]];" vertex="1" parent="1">
          <mxGeometry x="740" y="890" width="180" height="50" as="geometry" />
        </mxCell>
        <mxCell id="662g4ech87Eq5ZAw6HDh-2" style="edgeStyle=orthogonalEdgeStyle;rounded=0;orthogonalLoop=1;jettySize=auto;html=1;exitX=0.5;exitY=1;exitDx=0;exitDy=0;entryX=0.45;entryY=0.06;entryDx=0;entryDy=0;entryPerimeter=0;" edge="1" parent="1" source="XTGiWPY2_6qsZkjuVUfH-2" target="662g4ech87Eq5ZAw6HDh-1">
          <mxGeometry relative="1" as="geometry" />
        </mxCell>
        <mxCell id="662g4ech87Eq5ZAw6HDh-3" value="Has" style="edgeLabel;html=1;align=center;verticalAlign=middle;resizable=0;points=[];" vertex="1" connectable="0" parent="662g4ech87Eq5ZAw6HDh-2">
          <mxGeometry x="0.2097" y="-2" relative="1" as="geometry">
            <mxPoint as="offset" />
          </mxGeometry>
        </mxCell>
        <mxCell id="662g4ech87Eq5ZAw6HDh-4" value="&lt;font style=&quot;font-size: 18px;&quot;&gt;Guest Inventory&lt;/font&gt;" style="text;html=1;strokeColor=none;fillColor=none;align=center;verticalAlign=middle;whiteSpace=wrap;rounded=0;" vertex="1" parent="1">
          <mxGeometry x="790" y="900" width="60" height="30" as="geometry" />
        </mxCell>
      </root>
    </mxGraphModel>
  </diagram>
</mxfile>
